<svg id="logo-U-BT" xmlns="http://www.w3.org/2000/svg" width="120" height="120" viewBox="0 0 120 120">
  <g id="Group_206" data-name="Group 206">
    <path id="Path_96" data-name="Path 96" d="M60,0A60,60,0,1,1,0,60,60.007,60.007,0,0,1,60,0Z" fill-rule="evenodd"/>
    <path id="Path_97" data-name="Path 97" d="M60.263,1.316A58.947,58.947,0,1,1,1.316,60.263,58.954,58.954,0,0,1,60.263,1.316Z" transform="translate(-0.263 -0.263)" fill="#fff" fill-rule="evenodd"/>
    <path id="Path_98" data-name="Path 98" d="M64.046,20.23A43.816,43.816,0,1,1,20.23,64.046,43.821,43.821,0,0,1,64.046,20.23Z" transform="translate(-4.046 -4.046)" fill="#fff" fill-rule="evenodd"/>
    <path id="Path_99" data-name="Path 99" d="M63.936,108.191A44.255,44.255,0,1,0,19.681,63.936a44.26,44.26,0,0,0,44.255,44.254Zm0-1.1A43.152,43.152,0,1,0,20.784,63.936a43.157,43.157,0,0,0,43.152,43.152Zm0-1.241A41.911,41.911,0,1,0,22.025,63.936a41.916,41.916,0,0,0,41.911,41.911Zm0-3.171A38.74,38.74,0,1,0,25.2,63.936a38.745,38.745,0,0,0,38.74,38.74Z" transform="translate(-3.936 -3.936)" fill-rule="evenodd"/>
    <path id="Path_100" data-name="Path 100" d="M42.688,45.014H62.816v34.2a4.883,4.883,0,0,0,3.422,4.644,9.138,9.138,0,0,0,4.37.066,4.884,4.884,0,0,0,3.652-4.71v-34.2H94.387V79.567a22.055,22.055,0,0,1-18.366,21.674,48.226,48.226,0,0,1-15.238-.047,22.056,22.056,0,0,1-18.1-21.627V45.014Z" transform="translate(-8.538 -9.003)" fill-rule="evenodd"/>
    <path id="Path_101" data-name="Path 101" d="M10.149,62.3h2.716v-.918h.786v3.339h-.786v-.786H6.585v.786H5.8V59.023H7.371v.85H6.585V62.3H9.363V60.659H8.838v-.786h1.836v.786h-.525V62.3Zm3.623-5.023-1.7-.148.148-1.7,1.7.148-.149,1.7Zm1.561-10.055a6.536,6.536,0,0,1-.086,2.638A4.173,4.173,0,0,1,13.495,52.6a4.087,4.087,0,0,1-3.212.389,4.113,4.113,0,0,1-2.718-1.73A4.121,4.121,0,0,1,7.2,48.051a9.683,9.683,0,0,1,.364-1.2,11.613,11.613,0,0,1,.547-1.234l1.6.37-.19.827-.786-.094a3.849,3.849,0,0,0-.483.717,3.318,3.318,0,0,0-.284.771,2.044,2.044,0,0,0,.468,1.91,4.1,4.1,0,0,0,2.233,1.172,3.6,3.6,0,0,0,2.491-.182,2.463,2.463,0,0,0,1.306-1.745,4.917,4.917,0,0,0-.048-2.362l.91.21Zm.942-1.73-1.589-.61.61-1.589,1.589.61-.61,1.59Zm-2.7-11.175-.428.659-.659-.428,1.747-2.69.659.428-.428.659,3.447,2.239a3.137,3.137,0,0,0,1.734.642,1.494,1.494,0,0,0,1.18-.786,1.366,1.366,0,0,0,.213-1.332,3.477,3.477,0,0,0-1.349-1.31l-3.425-2.224-.429.659-.658-.428,1.5-2.31.659.429-.428.659,3.3,2.146a5.718,5.718,0,0,1,1.214.981,2.5,2.5,0,0,1,.511,1.038,2.923,2.923,0,0,1-.55,2.269,3.248,3.248,0,0,1-1.956,1.58A3.273,3.273,0,0,1,17,36.535l-3.425-2.224Zm14.31-7.03-6.707-1.066,3.38,3.265.546-.566.565.546L23.823,31.37l-.565-.546.546-.566L19.286,25.9l-.546.566-.565-.546L19.5,24.542l6.742,1.091-3.469-3.35-.546.566-.565-.546,1.844-1.91.566.546-.55.569,5.14,4.964-.782.81ZM27.7,18.054,31.565,23l.62-.484.483.619-2.527,1.974-.483-.619.619-.484L26.41,19.06l-.62.484-.483-.619,2.527-1.974.483.619-.619.484Zm8.7,2.7-6.012-4.862-.4.224-.381-.688,2.63-1.458.382.687-.686.38,4,3.217-.634-5.083-.683.378-.381-.688,1.846-1.023.382.687-.4.223,1.03,7.624-.688.382ZM46.3,15.926l-5.511,2.226-.294-.729.729-.294-2.353-5.823-.728.294-.294-.729,5.278-2.133.589,1.458-.787.318-.294-.729-2.246.908.979,2.424,1.519-.614-.2-.487.729-.294.687,1.7-.729.294-.2-.486-1.519.614,1.055,2.611,2.473-1-.32-.792.793-.32.638,1.58ZM48.9,11.7l.578,2.5.641-.148.177.766-2.936.678-.177-.766.766-.177L46.53,8.437l-.766.177-.177-.766,3.3-.762a3.207,3.207,0,0,1,2.018.06A1.706,1.706,0,0,1,51.9,8.411a2.354,2.354,0,0,1-.065,1.409,2.43,2.43,0,0,1-.922,1.1l2.667,2.336.511-.118.177.766-1.963.453-2.819-2.791-.59.136Zm-.17-.734.269-.062a1.891,1.891,0,0,0,1.214-.713,1.664,1.664,0,0,0,.15-1.332,1.172,1.172,0,0,0-.589-.843,1.786,1.786,0,0,0-1.2-.051l-.512.118.666,2.883Zm6.83,2.84-.122-1.736.916-.064.057.814a3.978,3.978,0,0,0,.764.31,1.992,1.992,0,0,0,.658.076,1.374,1.374,0,0,0,.926-.386,1.069,1.069,0,0,0,.3-.863,1.318,1.318,0,0,0-.283-.785,2.984,2.984,0,0,0-.93-.6l-.546-.249A5.268,5.268,0,0,1,55.7,9.293a1.9,1.9,0,0,1-.537-1.211,2,2,0,0,1,.589-1.625,2.648,2.648,0,0,1,1.757-.736,8.376,8.376,0,0,1,1.151,0,7.739,7.739,0,0,1,1.147.164l.111,1.586L59,7.535l-.053-.752a3.116,3.116,0,0,0-.666-.263,1.945,1.945,0,0,0-.616-.061,1.084,1.084,0,0,0-1,1.166.946.946,0,0,0,.272.619,3.275,3.275,0,0,0,.9.569l.55.27a5.863,5.863,0,0,1,1.66,1.077,1.951,1.951,0,0,1,.522,1.239,2.093,2.093,0,0,1-.678,1.772,3.3,3.3,0,0,1-2.083.792,7.544,7.544,0,0,1-1.057-.006,11.939,11.939,0,0,1-1.2-.15ZM64.4,6.572v6.281h.786v.786H61.978v-.786h.786V6.572h-.786V5.787h3.207v.786Zm5.792.862-1.97-.312-.133.839-.844-.134.266-1.678L74.751,7.3l-.266,1.678-.838-.133L73.78,8l-1.97-.311-.973,6.14.777.122-.123.777-3.171-.5.123-.776.776.122.973-6.14Zm6.72,6.447-1.062,1.2.737.269-.269.738-1.993-.726.269-.738.433.158,5.114-5.766,1.154.42.208,7.7.429.157-.269.738-2.751-1,.269-.738.738.269-.046-1.6-2.96-1.077Zm.582-.658,2.352.856-.1-3.4-2.254,2.539Zm10.823.713-1.744-.966-.412.742-.747-.414.823-1.486,6.412,3.554-.824,1.486-.742-.412.411-.743-1.744-.966-3.014,5.438.687.381-.381.687-2.808-1.557.381-.687.687.381,3.014-5.437Zm5.835,12.922L89.6,23.038l.506-.6.6.506,4.037-4.811-.6-.5.5-.6,4.362,3.66L98,21.887l-.65-.546.5-.6L96,19.181l-1.681,2,1.255,1.054.338-.4.6.506L95.33,23.747l-.6-.506.338-.4-1.255-1.054L92,23.943l2.043,1.714.55-.654.654.55-1.1,1.3Zm3.739.636-1.51.534.514.591-.594.516-1.391-1.6.594-.515.3.347,7.269-2.563.806.926-3.553,6.838.3.344-.593.516-1.921-2.21.593-.515.516.593.736-1.424-2.066-2.377Zm.828-.293,1.642,1.889,1.56-3.017L98.72,27.2ZM105.8,43.685a6.526,6.526,0,0,1-1.555-2.132,4.171,4.171,0,0,1-.309-3.241,4.11,4.11,0,0,1,7.758-.29,9.663,9.663,0,0,1,.45,1.167,11.843,11.843,0,0,1,.329,1.309l-1.49.7-.359-.77.676-.41a3.856,3.856,0,0,0-.061-.863,3.3,3.3,0,0,0-.25-.782,2.047,2.047,0,0,0-1.545-1.218,4.1,4.1,0,0,0-2.481.451,3.6,3.6,0,0,0-1.852,1.677,2.462,2.462,0,0,0,.045,2.179,4.92,4.92,0,0,0,1.492,1.832l-.847.394Zm1.867,7.256-1.746-5.714.752-.23.23.751,6.006-1.836-.23-.751.751-.23L114.365,46l-.751.23-.23-.751-5.946,1.818.79,2.58.817-.25.25.818-1.63.5Zm7.249.593-.109-.778.778-.11.446,3.176-.778.11-.11-.778-4.071.573a3.134,3.134,0,0,0-1.73.652,1.494,1.494,0,0,0-.374,1.367,1.368,1.368,0,0,0,.713,1.146,3.474,3.474,0,0,0,1.878.1l4.044-.568-.11-.778.778-.109.383,2.727-.778.11-.109-.778-3.9.548a5.723,5.723,0,0,1-1.559.057,2.507,2.507,0,0,1-1.067-.448,2.929,2.929,0,0,1-1.074-2.073,2.775,2.775,0,0,1,2.707-3.579l4.043-.568Zm-7.614,8.5h1.326v.918h-.556a1.3,1.3,0,0,0-.165.616.638.638,0,0,0,.324.614,2.631,2.631,0,0,0,1.15.175h6.376v-.918h.786v3.339h-.786v-.786H109.94a3.206,3.206,0,0,1-2.171-.589,2.549,2.549,0,0,1-.65-1.963,5.817,5.817,0,0,1,.182-1.407Z" transform="translate(-1.16 -1.14)"/>
    <path id="Path_102" data-name="Path 102" d="M57.642,132.214l-1.966,6.859,1.26.362-.217.755-4.031-1.156.217-.756,1.26.362,1.661-5.791-1.333-.107.216-.756,2.934.229Zm9.2,5.833a2.251,2.251,0,0,1-.87.6,2.429,2.429,0,0,1-1.079.131,2.346,2.346,0,0,1-1.671-.845,2.392,2.392,0,0,1-.53-1.808,2.7,2.7,0,0,1,.976-1.93,2.773,2.773,0,0,1,2.1-.613,2.74,2.74,0,0,1,2.184,1.234,4.593,4.593,0,0,1,.564,2.967,4.851,4.851,0,0,1-1.206,3.058,3.134,3.134,0,0,1-2.662.918,6.045,6.045,0,0,1-.927-.163q-.508-.128-1.111-.346l.117-1.338.846.074.017.6a2.633,2.633,0,0,0,.537.265,2.179,2.179,0,0,0,.553.123A1.593,1.593,0,0,0,66.1,140.3a3.6,3.6,0,0,0,.712-1.987l.023-.265Zm.07-1.362a2.883,2.883,0,0,0-.263-1.628,1.2,1.2,0,0,0-.981-.712,1.059,1.059,0,0,0-.946.383,2.147,2.147,0,0,0-.441,1.238,2.547,2.547,0,0,0,.222,1.462,1.107,1.107,0,0,0,.917.6,1.286,1.286,0,0,0,1.019-.324,1.489,1.489,0,0,0,.473-1.022Zm9.188-3.017.622,7.108,1.306-.114.068.783-4.178.366-.068-.783,1.306-.114-.525-6-1.283.378-.068-.783,2.82-.838Zm10.723,2.064a2.247,2.247,0,0,1-.6.876,2.432,2.432,0,0,1-.96.509,2.339,2.339,0,0,1-1.862-.19,2.4,2.4,0,0,1-1.144-1.5,2.7,2.7,0,0,1,.219-2.152,2.778,2.778,0,0,1,1.737-1.323,2.743,2.743,0,0,1,2.482.37,4.592,4.592,0,0,1,1.59,2.568,4.854,4.854,0,0,1-.03,3.287,3.136,3.136,0,0,1-2.156,1.81,6.167,6.167,0,0,1-.924.18c-.346.041-.733.067-1.162.075l-.37-1.29.817-.234.23.552a2.689,2.689,0,0,0,.6.055,2.251,2.251,0,0,0,.561-.083,1.6,1.6,0,0,0,1.1-1.147,3.611,3.611,0,0,0-.047-2.11l-.074-.256Zm-.423-1.3a2.888,2.888,0,0,0-.829-1.426A1.2,1.2,0,0,0,84.4,132.7a1.057,1.057,0,0,0-.746.7,2.149,2.149,0,0,0,.032,1.314,2.55,2.55,0,0,0,.732,1.286,1.106,1.106,0,0,0,1.071.234,1.285,1.285,0,0,0,.835-.667,1.487,1.487,0,0,0,.075-1.123Z" transform="translate(-10.538 -26.363)"/>
  </g>
</svg>
